{"accessors":[{"bufferView":0,"componentType":5126,"count":396,"max":[0.10000000149011612,0.09444444626569748,0.029999999329447746],"min":[-0.4000000059604645,-0.4055555462837219,-1.149999976158142],"type":"VEC3"},{"bufferView":1,"componentType":5126,"count":396,"type":"VEC3"},{"bufferView":2,"componentType":5126,"count":396,"type":"VEC2"},{"bufferView":3,"componentType":5125,"count":396,"type":"SCALAR"},{"bufferView":4,"componentType":5126,"count":450,"max":[0.25,0.25,0.6942150592803955],"min":[-0.25,-0.25,0.0],"type":"VEC3"},{"bufferView":5,"componentType":5126,"count":450,"type":"VEC3"},{"bufferView":6,"componentType":5126,"count":450,"type":"VEC2"},{"bufferView":7,"componentType":5125,"count":450,"type":"SCALAR"}],"asset":{"generator":"Luxion KeyShot","version":"2.0"},"bufferViews":[{"buffer":0,"byteLength":4752,"byteOffset":0,"byteStride":12},{"buffer":0,"byteLength":4752,"byteOffset":4752,"byteStride":12},{"buffer":0,"byteLength":3168,"byteOffset":9504,"byteStride":8},{"buffer":0,"byteLength":1584,"byteOffset":12672},{"buffer":0,"byteLength":5400,"byteOffset":14256,"byteStride":12},{"buffer":0,"byteLength":5400,"byteOffset":19656,"byteStride":12},{"buffer":0,"byteLength":3600,"byteOffset":25056,"byteStride":8},{"buffer":0,"byteLength":1800,"byteOffset":28656}],"buffers":[{"byteLength":30456,"uri":"./kstmp518900921_resources/kstmp518900921.bin"}],"cameras":[{"name":"active","perspective":{"aspectRatio":1.0,"yfov":0.6911154697478635,"zfar":4.219705581665039,"znear":3.0619957447052},"type":"perspective"}],"images":[{"uri":"./kstmp518900921_resources/colum01[64]_4_color.png"},{"uri":"./kstmp518900921_resources/colum01[64]_4_roughness_metalness.png"},{"uri":"./kstmp518900921_resources/Part17[82]_6_color.png"},{"uri":"./kstmp518900921_resources/Part17[82]_6_roughness_metalness.png"}],"materials":[{"doubleSided":true,"pbrMetallicRoughness":{"baseColorTexture":{"index":0},"metallicRoughnessTexture":{"index":1}}},{"doubleSided":true,"pbrMetallicRoughness":{"baseColorTexture":{"index":2},"metallicRoughnessTexture":{"index":3}}}],"meshes":[{"name":"colum01[64]-mesh","primitives":[{"attributes":{"NORMAL":1,"POSITION":0,"TEXCOORD_0":2},"indices":3,"material":0,"mode":4}]},{"name":"Part17[82]-mesh","primitives":[{"attributes":{"NORMAL":5,"POSITION":4,"TEXCOORD_0":6},"indices":7,"material":1,"mode":4}]}],"nodes":[{"camera":0,"matrix":[0.475773494800078,-1.7916770023163053e-07,0.8795678491627896,0.0,0.23704958292563988,0.962998493207055,-0.12822403192494783,0.0,-0.8470224738121033,0.2695067822933197,0.45816919207572937,0.0,-3.135024309158325,1.3243944644927979,2.319345235824585,1.0],"name":"active"},{"mesh":0,"name":"colum01[64]"},{"children":[1],"matrix":[1.0,0.0,0.0,0.0,0.0,1.0,0.0,0.0,0.0,0.0,1.0,0.0,0.09885799884796143,-0.49566400051116943,0.5560529828071594,1.0],"name":"Grp colum01[64]"},{"mesh":1,"name":"Part17[82]"},{"children":[3],"matrix":[1.0,0.0,0.0,0.0,0.0,1.0,0.0,0.0,0.0,0.0,1.0,0.0,-0.051141999661922455,-0.6512200236320496,0.5860530138015747,1.0],"name":"Grp Part17[82]"},{"children":[2,4],"matrix":[1.0,0.0,0.0,0.0,0.0,1.2246467991473532e-16,-1.0,0.0,0.0,1.0,1.2246467991473532e-16,0.0,0.0,0.0,0.0,1.0],"name":"colum01"},{"children":[5],"name":"Default"},{"children":[6],"matrix":[0.01,0.0,0.0,0.0,0.0,0.01,0.0,0.0,0.0,0.0,0.01,0.0,0.0,0.0,0.0,1.0],"name":"lux_root"}],"samplers":[{"magFilter":9729,"minFilter":9987,"wrapS":10497,"wrapT":10497},{"magFilter":9729,"minFilter":9987,"wrapS":10497,"wrapT":10497},{"magFilter":9729,"minFilter":9987,"wrapS":10497,"wrapT":10497},{"magFilter":9729,"minFilter":9987,"wrapS":10497,"wrapT":10497}],"scenes":[{"nodes":[0,7]}],"textures":[{"sampler":0,"source":0},{"sampler":1,"source":1},{"sampler":2,"source":2},{"sampler":3,"source":3}]}   